<svg width="400" height="150" viewBox="0 0 400 150" fill="none" xmlns="http://www.w3.org/2000/svg">
<path d="M1.35107 0.5H399.5V129.787C399.5 140.556 390.77 149.287 380 149.287H20.8511C10.0815 149.287 1.35107 140.556 1.35107 129.787V0.5Z" fill="url(#paint0_linear_173_2)" fill-opacity="0.2" stroke="#605F5F"/>
<rect x="332.766" y="73" width="12.766" height="15" fill="#D9D9D9" fill-opacity="0.1"/>
<rect x="345.532" y="88" width="12.766" height="15" fill="#D9D9D9" fill-opacity="0.1"/>
<rect x="358.298" y="133" width="12.766" height="15" fill="#D9D9D9" fill-opacity="0.1"/>
<rect x="320" y="58" width="12.766" height="15" fill="#D9D9D9" fill-opacity="0.1"/>
<rect x="358.298" y="73" width="12.766" height="15" fill="#D9D9D9" fill-opacity="0.1"/>
<rect x="332.766" y="133" width="12.766" height="15" fill="#D9D9D9" fill-opacity="0.1"/>
<rect x="371.064" y="118" width="12.766" height="15" fill="#D9D9D9" fill-opacity="0.1"/>
<rect x="345.532" y="118" width="12.766" height="15" fill="#D9D9D9" fill-opacity="0.1"/>
<rect x="371.064" y="88" width="12.766" height="15" fill="#D9D9D9" fill-opacity="0.1"/>
<rect x="371.064" y="58" width="12.766" height="15" fill="#D9D9D9" fill-opacity="0.1"/>
<rect x="383.83" y="73" width="12.766" height="15" fill="#D9D9D9" fill-opacity="0.1"/>
<rect x="332.766" y="103" width="12.766" height="15" fill="#D9D9D9" fill-opacity="0.1"/>
<defs>
<linearGradient id="paint0_linear_173_2" x1="165.5" y1="66" x2="376" y2="257" gradientUnits="userSpaceOnUse">
<stop stop-color="#145AE3"/>
<stop offset="1" stop-color="#145AE3" stop-opacity="0"/>
</linearGradient>
</defs>
</svg>
