<svg width="103" height="107" viewBox="0 0 103 107" fill="none" xmlns="http://www.w3.org/2000/svg">
<g clip-path="url(#clip0_29_439)">
<path fill-rule="evenodd" clip-rule="evenodd" d="M60.2256 19.2759C58.284 18.0049 55.8448 17.6675 53.4448 18.3378C51.0447 19.0082 48.8803 20.6314 47.4277 22.8504L21.8688 61.8955C20.4162 64.1145 19.7944 66.7475 20.1403 69.2153C20.4861 71.6831 21.7712 73.7836 23.7128 75.0546L43.2353 87.8341C45.177 89.1051 47.6161 89.4425 50.0162 88.7722C52.4162 88.1018 54.5806 86.4786 56.0332 84.2596L81.5922 45.2145C83.0447 42.9955 83.6665 40.3625 83.3207 37.8947C82.9749 35.4268 81.6898 33.3264 79.7481 32.0554L60.2256 19.2759ZM53.5359 34.8208C52.8887 34.3971 52.4603 33.697 52.3451 32.8744C52.2298 32.0518 52.437 31.1741 52.9212 30.4344C53.4054 29.6948 54.1287 29.1509 54.9287 28.9275C55.7287 28.704 56.5418 28.8165 57.189 29.2402C57.8362 29.6638 58.2646 30.364 58.3799 31.1866C58.4951 32.0092 58.2879 32.8868 57.8037 33.6265C57.3195 34.3662 56.5962 34.9101 55.7962 35.1335C54.9962 35.357 54.1831 35.2445 53.5359 34.8208ZM47.4443 38.8012C46.9601 39.5409 46.7529 40.4186 46.8681 41.2412C46.9834 42.0638 47.4118 42.7639 48.059 43.1876C48.7062 43.6113 49.5192 43.7238 50.3193 43.5003C51.1193 43.2769 51.8407 42.7358 52.3249 41.9961L52.3268 41.9933C52.8109 41.2536 53.0182 40.376 52.9029 39.5534C52.7877 38.7308 52.3593 38.0306 51.7121 37.607C51.0649 37.1833 50.2518 37.0708 49.4518 37.2943C48.6518 37.5177 47.9303 38.0588 47.4461 38.7984L47.4443 38.8012ZM55.3799 47.9799C54.7327 47.5562 54.3044 46.8561 54.1891 46.0335C54.0738 45.2109 54.2811 44.3332 54.7652 43.5935L54.7671 43.5908C55.2513 42.8511 55.9727 42.31 56.7728 42.0866C57.5728 41.8631 58.3858 41.9756 59.033 42.3993C59.6802 42.8229 60.1086 43.5231 60.2239 44.3457C60.3392 45.1683 60.1319 46.046 59.6477 46.7856L59.6459 46.7884C59.1617 47.5281 58.4402 48.0692 57.6402 48.2926C56.8402 48.5161 56.0271 48.4036 55.3799 47.9799ZM60.2422 35.2267C59.758 35.9664 59.5507 36.8441 59.666 37.6667C59.7813 38.4893 60.2096 39.1894 60.8568 39.6131C61.5041 40.0368 62.3171 40.1493 63.1171 39.9258C63.9172 39.7024 64.6386 39.1613 65.1228 38.4216C65.607 37.6819 65.8161 36.8015 65.7008 35.9789C65.5855 35.1563 65.1572 34.4561 64.51 34.0325C63.8627 33.6088 63.0497 33.4963 62.2497 33.7198C61.4497 33.9432 60.7264 34.4871 60.2422 35.2267ZM68.1778 44.4054C67.5306 43.9818 67.1022 43.2816 66.987 42.459C66.8717 41.6364 67.0789 40.7587 67.5631 40.0191C68.0473 39.2794 68.7706 38.7355 69.5706 38.5121C70.3706 38.2886 71.1837 38.4011 71.8309 38.8248C72.4781 39.2484 72.9065 39.9486 73.0217 40.7712C73.137 41.5938 72.9298 42.4715 72.4456 43.2111C71.9614 43.9508 71.2381 44.4947 70.4381 44.7181C69.6381 44.9416 68.825 44.8291 68.1778 44.4054ZM62.0862 48.3859C61.602 49.1255 61.3948 50.0032 61.51 50.8258C61.6253 51.6484 62.0537 52.3486 62.7009 52.7722C63.3481 53.1959 64.1611 53.3084 64.9612 53.0849C65.7612 52.8615 66.4826 52.3204 66.9668 51.5807L66.9687 51.5779C67.4528 50.8383 67.6601 49.9606 67.5448 49.138C67.4296 48.3154 67.0012 47.6152 66.354 47.1916C65.7068 46.7679 64.8937 46.6554 64.0937 46.8789C63.2937 47.1023 62.5722 47.6434 62.088 48.3831L62.0862 48.3859ZM42.5821 51.5544C41.9348 51.1307 41.5065 50.4306 41.3912 49.608C41.2759 48.7854 41.4832 47.9077 41.9674 47.168L41.9692 47.1652C42.4534 46.4256 43.1749 45.8845 43.9749 45.6611C44.7749 45.4376 45.588 45.5501 46.2352 45.9738C46.8824 46.3974 47.3107 47.0976 47.426 47.9202C47.5413 48.7428 47.334 49.6204 46.8498 50.3601L46.848 50.3629C46.3638 51.1026 45.6424 51.6437 44.8423 51.8671C44.0423 52.0906 43.2293 51.9781 42.5821 51.5544ZM49.2883 51.9603C48.8041 52.7 48.5969 53.5777 48.7122 54.4003C48.8274 55.2229 49.2558 55.923 49.903 56.3467C50.5502 56.7704 51.3633 56.8829 52.1633 56.6594C52.9633 56.436 53.6848 55.8949 54.169 55.1552L54.1708 55.1524C54.655 54.4128 54.8622 53.5351 54.747 52.7125C54.6317 51.8899 54.2033 51.1897 53.5561 50.7661C52.9089 50.3424 52.0959 50.2299 51.2958 50.4534C50.4958 50.6768 49.7743 51.2179 49.2902 51.9576L49.2883 51.9603Z" fill="white"/>
</g>
<defs>
<clipPath id="clip0_29_439">
<rect width="70" height="80" fill="white" transform="translate(44.3544 0.918579) rotate(33.2088)"/>
</clipPath>
</defs>
</svg>
