<svg width="57" height="59" viewBox="0 0 57 59" fill="none" xmlns="http://www.w3.org/2000/svg">
<path d="M40.9036 3.51447C37.8741 0.643022 33.7374 0.336373 29.8043 2.02999L10.1388 10.4981C6.20568 12.1917 3.13178 15.6033 2.2281 20.1683C-1.59028 36.4283 2.40415 56.8408 8.81744 58.6727C15.2307 60.5046 21.9282 37.5762 28.1556 34.8946C34.383 32.2131 50.9564 45.121 55.3591 38.6316C59.4341 32.2834 52.162 13.2823 40.9036 3.51447ZM18.7307 27.678L15.4531 29.0893L16.516 32.8076L13.2384 34.219L12.1756 30.5007L8.89798 31.912L7.8351 28.1938L11.1127 26.7824L10.0498 23.0642L13.3274 21.6528L14.3903 25.3711L17.6678 23.9597L18.7307 27.678ZM36.9611 21.9159C37.4925 23.775 36.6066 25.8268 34.9679 26.5325C33.3291 27.2382 31.5929 26.3154 31.0614 24.4563C30.53 22.5972 31.4159 20.5453 33.0547 19.8396C34.6935 19.134 36.4297 20.0567 36.9611 21.9159ZM41.0628 11.7978C41.5942 13.6569 40.7083 15.7088 39.0695 16.4144C37.4307 17.1201 35.6945 16.1973 35.1631 14.3382C34.6317 12.4791 35.5176 10.4272 37.1563 9.72158C38.7951 9.0159 40.5313 9.93867 41.0628 11.7978Z" fill="#2477EE"/>
</svg>
